<svg width="194" height="233" viewBox="0 0 194 233" fill="none" xmlns="http://www.w3.org/2000/svg">
<path d="M96.804 29.664L33.732 223.2V222.912C32.58 225.792 30.948 228.192 28.836 230.112C26.916 231.84 24.516 232.704 21.636 232.704C20.1 232.704 18.564 232.512 17.028 232.128C15.684 231.936 14.244 231.648 12.708 231.264H12.996C2.052 227.808 -1.98 221.664 0.9 212.832L66.564 13.248C67.524 10.176 69.156 7.584 71.46 5.472C73.956 3.36 76.836 2.112 80.1 1.728C83.364 1.152 86.532 0.767996 89.604 0.575996C92.676 0.191996 95.076 0 96.804 0C98.532 0 100.932 0.191996 104.004 0.575996C107.076 0.767996 110.244 1.056 113.508 1.44C116.196 1.824 118.788 3.264 121.284 5.76C123.972 8.256 125.988 10.752 127.332 13.248C138.084 46.272 148.932 79.584 159.876 113.184C171.012 146.592 181.956 179.808 192.708 212.832C195.396 221.664 191.364 227.808 180.612 231.264C179.076 231.648 177.636 231.936 176.292 232.128C175.14 232.512 173.796 232.704 172.26 232.704C169.572 232.704 167.076 231.84 164.772 230.112C162.66 228.192 161.124 225.792 160.164 222.912V223.2L96.804 29.664ZM118.404 160.992C118.404 167.136 116.196 172.416 111.78 176.832C107.556 181.056 102.372 183.168 96.228 183.168C90.084 183.168 84.9 181.056 80.676 176.832C76.452 172.416 74.34 167.136 74.34 160.992C74.34 154.848 76.452 149.664 80.676 145.44C84.9 141.024 90.084 138.816 96.228 138.816C102.372 138.816 107.556 141.024 111.78 145.44C116.196 149.664 118.404 154.848 118.404 160.992Z" fill="url(#paint0_linear)"/>
<defs>
<linearGradient id="paint0_linear" x1="97" y1="-32" x2="113" y2="314.5" gradientUnits="userSpaceOnUse">
<stop stop-color="#3B3E71" stop-opacity="0.859897"/>
<stop stop-opacity="0.66"/>
<stop stop-color="#646AC0"/>
<stop offset="0.216667" stop-color="#0D082F"/>
<stop offset="0.562192" stop-color="#4B58CA"/>
<stop offset="0.699586"/>
</linearGradient>
</defs>
</svg>
