<svg width="643" height="345" viewBox="0 0 643 345" fill="none" xmlns="http://www.w3.org/2000/svg">
<rect width="642.735" height="345" fill="#B2A271"/>
<path d="M231.805 164.094H217.508L214.297 173H209.656L222.688 138.875H226.625L239.68 173H235.062L231.805 164.094ZM218.867 160.391H230.469L224.656 144.43L218.867 160.391ZM248.305 173H243.969V137H248.305V173ZM276.688 160.602C276.688 164.461 275.805 167.57 274.039 169.93C272.273 172.289 269.883 173.469 266.867 173.469C263.789 173.469 261.367 172.492 259.602 170.539V182.75H255.266V147.641H259.227L259.438 150.453C261.203 148.266 263.656 147.172 266.797 147.172C269.844 147.172 272.25 148.32 274.016 150.617C275.797 152.914 276.688 156.109 276.688 160.203V160.602ZM272.352 160.109C272.352 157.25 271.742 154.992 270.523 153.336C269.305 151.68 267.633 150.852 265.508 150.852C262.883 150.852 260.914 152.016 259.602 154.344V166.461C260.898 168.773 262.883 169.93 265.555 169.93C267.633 169.93 269.281 169.109 270.5 167.469C271.734 165.812 272.352 163.359 272.352 160.109ZM286.555 150.711C288.477 148.352 290.977 147.172 294.055 147.172C299.414 147.172 302.117 150.195 302.164 156.242V173H297.828V156.219C297.812 154.391 297.391 153.039 296.562 152.164C295.75 151.289 294.477 150.852 292.742 150.852C291.336 150.852 290.102 151.227 289.039 151.977C287.977 152.727 287.148 153.711 286.555 154.93V173H282.219V137H286.555V150.711ZM324.312 173C324.062 172.5 323.859 171.609 323.703 170.328C321.688 172.422 319.281 173.469 316.484 173.469C313.984 173.469 311.93 172.766 310.32 171.359C308.727 169.938 307.93 168.141 307.93 165.969C307.93 163.328 308.93 161.281 310.93 159.828C312.945 158.359 315.773 157.625 319.414 157.625H323.633V155.633C323.633 154.117 323.18 152.914 322.273 152.023C321.367 151.117 320.031 150.664 318.266 150.664C316.719 150.664 315.422 151.055 314.375 151.836C313.328 152.617 312.805 153.562 312.805 154.672H308.445C308.445 153.406 308.891 152.188 309.781 151.016C310.688 149.828 311.906 148.891 313.438 148.203C314.984 147.516 316.68 147.172 318.523 147.172C321.445 147.172 323.734 147.906 325.391 149.375C327.047 150.828 327.906 152.836 327.969 155.398V167.07C327.969 169.398 328.266 171.25 328.859 172.625V173H324.312ZM317.117 169.695C318.477 169.695 319.766 169.344 320.984 168.641C322.203 167.938 323.086 167.023 323.633 165.898V160.695H320.234C314.922 160.695 312.266 162.25 312.266 165.359C312.266 166.719 312.719 167.781 313.625 168.547C314.531 169.312 315.695 169.695 317.117 169.695ZM349.531 166.273C349.531 165.102 349.086 164.195 348.195 163.555C347.32 162.898 345.781 162.336 343.578 161.867C341.391 161.398 339.648 160.836 338.352 160.18C337.07 159.523 336.117 158.742 335.492 157.836C334.883 156.93 334.578 155.852 334.578 154.602C334.578 152.523 335.453 150.766 337.203 149.328C338.969 147.891 341.219 147.172 343.953 147.172C346.828 147.172 349.156 147.914 350.938 149.398C352.734 150.883 353.633 152.781 353.633 155.094H349.273C349.273 153.906 348.766 152.883 347.75 152.023C346.75 151.164 345.484 150.734 343.953 150.734C342.375 150.734 341.141 151.078 340.25 151.766C339.359 152.453 338.914 153.352 338.914 154.461C338.914 155.508 339.328 156.297 340.156 156.828C340.984 157.359 342.477 157.867 344.633 158.352C346.805 158.836 348.562 159.414 349.906 160.086C351.25 160.758 352.242 161.57 352.883 162.523C353.539 163.461 353.867 164.609 353.867 165.969C353.867 168.234 352.961 170.055 351.148 171.43C349.336 172.789 346.984 173.469 344.094 173.469C342.062 173.469 340.266 173.109 338.703 172.391C337.141 171.672 335.914 170.672 335.023 169.391C334.148 168.094 333.711 166.695 333.711 165.195H338.047C338.125 166.648 338.703 167.805 339.781 168.664C340.875 169.508 342.312 169.93 344.094 169.93C345.734 169.93 347.047 169.602 348.031 168.945C349.031 168.273 349.531 167.383 349.531 166.273ZM375.172 173C374.922 172.5 374.719 171.609 374.562 170.328C372.547 172.422 370.141 173.469 367.344 173.469C364.844 173.469 362.789 172.766 361.18 171.359C359.586 169.938 358.789 168.141 358.789 165.969C358.789 163.328 359.789 161.281 361.789 159.828C363.805 158.359 366.633 157.625 370.273 157.625H374.492V155.633C374.492 154.117 374.039 152.914 373.133 152.023C372.227 151.117 370.891 150.664 369.125 150.664C367.578 150.664 366.281 151.055 365.234 151.836C364.188 152.617 363.664 153.562 363.664 154.672H359.305C359.305 153.406 359.75 152.188 360.641 151.016C361.547 149.828 362.766 148.891 364.297 148.203C365.844 147.516 367.539 147.172 369.383 147.172C372.305 147.172 374.594 147.906 376.25 149.375C377.906 150.828 378.766 152.836 378.828 155.398V167.07C378.828 169.398 379.125 171.25 379.719 172.625V173H375.172ZM367.977 169.695C369.336 169.695 370.625 169.344 371.844 168.641C373.062 167.938 373.945 167.023 374.492 165.898V160.695H371.094C365.781 160.695 363.125 162.25 363.125 165.359C363.125 166.719 363.578 167.781 364.484 168.547C365.391 169.312 366.555 169.695 367.977 169.695ZM401.281 170.492C399.594 172.477 397.117 173.469 393.852 173.469C391.148 173.469 389.086 172.688 387.664 171.125C386.258 169.547 385.547 167.219 385.531 164.141V147.641H389.867V164.023C389.867 167.867 391.43 169.789 394.555 169.789C397.867 169.789 400.07 168.555 401.164 166.086V147.641H405.5V173H401.375L401.281 170.492ZM424.367 151.531C423.711 151.422 423 151.367 422.234 151.367C419.391 151.367 417.461 152.578 416.445 155V173H412.109V147.641H416.328L416.398 150.57C417.82 148.305 419.836 147.172 422.445 147.172C423.289 147.172 423.93 147.281 424.367 147.5V151.531ZM443.141 166.273C443.141 165.102 442.695 164.195 441.805 163.555C440.93 162.898 439.391 162.336 437.188 161.867C435 161.398 433.258 160.836 431.961 160.18C430.68 159.523 429.727 158.742 429.102 157.836C428.492 156.93 428.188 155.852 428.188 154.602C428.188 152.523 429.062 150.766 430.812 149.328C432.578 147.891 434.828 147.172 437.562 147.172C440.438 147.172 442.766 147.914 444.547 149.398C446.344 150.883 447.242 152.781 447.242 155.094H442.883C442.883 153.906 442.375 152.883 441.359 152.023C440.359 151.164 439.094 150.734 437.562 150.734C435.984 150.734 434.75 151.078 433.859 151.766C432.969 152.453 432.523 153.352 432.523 154.461C432.523 155.508 432.938 156.297 433.766 156.828C434.594 157.359 436.086 157.867 438.242 158.352C440.414 158.836 442.172 159.414 443.516 160.086C444.859 160.758 445.852 161.57 446.492 162.523C447.148 163.461 447.477 164.609 447.477 165.969C447.477 168.234 446.57 170.055 444.758 171.43C442.945 172.789 440.594 173.469 437.703 173.469C435.672 173.469 433.875 173.109 432.312 172.391C430.75 171.672 429.523 170.672 428.633 169.391C427.758 168.094 427.32 166.695 427.32 165.195H431.656C431.734 166.648 432.312 167.805 433.391 168.664C434.484 169.508 435.922 169.93 437.703 169.93C439.344 169.93 440.656 169.602 441.641 168.945C442.641 168.273 443.141 167.383 443.141 166.273Z" fill="black"/>
</svg>
