<svg width="512" height="512" viewBox="0 0 512 512" fill="none" xmlns="http://www.w3.org/2000/svg">
<path d="M141.508 173.513H228.191L250.171 195.492C252.185 197.506 254.863 198.616 257.712 198.616C260.56 198.616 263.238 197.507 265.252 195.492L287.231 173.513H373.68C383.222 173.513 390.986 165.75 390.986 156.207V141.055C390.986 136.913 387.628 133.555 383.486 133.555C379.344 133.555 375.986 136.913 375.986 141.055V156.207C375.986 157.478 374.952 158.513 373.68 158.513H284.125C282.136 158.513 280.229 159.303 278.822 160.71L257.712 181.819L236.602 160.71C235.195 159.304 233.288 158.514 231.299 158.514H141.509C140.238 158.514 139.203 157.48 139.203 156.208V17.306C139.203 16.035 140.237 15 141.509 15H373.681C374.952 15 375.987 16.034 375.987 17.306V107.767C375.987 111.909 379.345 115.267 383.487 115.267C387.629 115.267 390.987 111.909 390.987 107.767V17.306C390.986 7.763 383.223 0 373.68 0H141.508C131.966 0 124.202 7.763 124.202 17.306V156.208C124.203 165.75 131.966 173.513 141.508 173.513V173.513Z" fill="white"/>
<path d="M266.192 27.413H248.997C240.076 27.413 232.818 34.671 232.818 43.592V54.306H213.214C204.932 54.306 198.195 61.043 198.195 69.325V128.118C198.195 136.399 204.932 143.137 213.214 143.137H301.976C310.257 143.137 316.995 136.4 316.995 128.118V69.324C316.995 61.043 310.258 54.305 301.976 54.305H282.371V43.591C282.37 34.67 275.113 27.413 266.192 27.413ZM247.818 43.591C247.818 42.941 248.347 42.412 248.997 42.412H266.192C266.842 42.412 267.37 42.941 267.37 43.591V54.305H247.818V43.591ZM301.994 69.324L301.988 128.135C301.988 128.135 301.984 128.135 301.976 128.135L213.195 128.116L213.214 69.304L301.994 69.324Z" fill="white"/>
<path d="M511.181 471.064L507.133 448.422C503.597 428.684 489.695 412.175 470.852 405.339L454.926 399.559V373.77C455.005 373.694 455.087 373.623 455.165 373.547C464.817 364.079 470.353 350.943 470.353 337.508V307.71C470.353 304.452 470.027 301.271 469.419 298.188C483.954 294.681 494.787 281.572 494.787 265.972C494.787 247.701 479.922 232.837 461.651 232.837C445.697 232.837 432.342 244.171 429.211 259.209C426.597 258.778 423.917 258.543 421.183 258.543C394.071 258.543 372.014 280.599 372.014 307.71V338.439C372.014 352.387 377.969 365.08 387.461 374.077V399.97L372.307 405.468C364.12 408.438 356.816 413.225 350.884 419.396C343.53 404.184 330.521 392.287 314.186 386.363L294.285 379.149V346.832C294.524 346.606 294.769 346.39 295.004 346.159C306.222 335.155 312.656 319.89 312.656 304.277V268.806C312.656 237.32 287.039 211.704 255.552 211.704C224.065 211.704 198.448 237.32 198.448 268.806V305.387C198.448 320.445 204.257 334.653 214.806 345.395C215.471 346.072 216.15 346.73 216.843 347.37V379.636L197.852 386.525C176.806 394.159 161.245 411.745 156.223 433.573C156.039 434.375 155.868 435.178 155.726 435.941L150.537 463.038C148.479 473.784 150.894 484.7 157.038 493.476C153.775 495.75 149.873 496.999 145.762 496.999H34.8116C28.8846 496.999 23.3186 494.379 19.5426 489.811C15.7686 485.245 14.2436 479.29 15.3586 473.472L19.7166 450.701C22.4406 436.451 32.6096 424.522 46.2516 419.57L62.7676 413.584C70.8926 419.295 80.4626 422.147 90.0326 422.147C99.7586 422.147 109.483 419.198 117.687 413.311L134.578 419.438C135.423 419.745 136.286 419.89 137.135 419.89C140.201 419.89 143.08 417.995 144.186 414.946C145.599 411.052 143.587 406.75 139.693 405.338L123.758 399.558V373.776C123.839 373.698 123.923 373.625 124.004 373.546C133.656 364.078 139.192 350.942 139.192 337.507V307.71C139.192 280.599 117.134 258.543 90.0216 258.543C62.9096 258.543 40.8526 280.599 40.8526 307.71V338.439C40.8526 352.389 46.8096 365.083 56.3036 374.08V399.971L41.1376 405.468C22.5486 412.216 8.69457 428.469 4.98457 447.883L0.627568 470.65C-1.33243 480.874 1.34757 491.341 7.98157 499.367C14.6166 507.396 24.3956 512 34.8116 512H145.762C153.993 512 161.751 509.158 167.913 504.04C174.374 508.282 181.942 510.567 189.832 510.567H321.9C329.794 510.567 337.361 508.282 343.816 504.041C349.983 509.158 357.743 512 365.97 512H476.92C487.252 512 496.981 507.457 503.611 499.535C510.242 491.612 513.001 481.234 511.181 471.064V471.064ZM55.8536 307.71C55.8536 288.87 71.1816 273.543 90.0226 273.543C106.925 273.543 120.992 285.881 123.71 302.021C121.436 303.258 119.042 304.391 116.557 305.385C102.404 311.051 89.9276 310.713 85.3736 307.52C81.9826 305.142 77.3046 305.962 74.9266 309.353C72.5486 312.744 73.3686 317.421 76.7596 319.8C81.5136 323.134 88.1856 324.797 95.8426 324.797C103.883 324.797 113.007 322.964 122.133 319.31C122.826 319.032 123.509 318.738 124.193 318.443V337.507C124.193 346.94 120.296 356.173 113.501 362.838C106.904 369.308 98.3236 372.761 89.3506 372.604C70.8806 372.248 55.8536 356.922 55.8536 338.44V307.71V307.71ZM89.0616 387.601C89.3746 387.607 89.6876 387.61 90.0006 387.61C96.5216 387.61 102.869 386.288 108.759 383.778V401.258C97.6206 409.141 82.4506 409.15 71.3036 401.249V383.853C76.8036 386.148 82.7916 387.48 89.0616 387.601V387.601ZM461.652 247.837C471.652 247.837 479.788 255.972 479.788 265.972C479.788 275.112 472.992 282.674 464.194 283.917C459.469 275.411 452.295 268.453 443.63 263.987C444.623 254.919 452.323 247.837 461.652 247.837V247.837ZM387.015 307.71C387.015 288.87 402.344 273.543 421.185 273.543C440.026 273.543 455.354 288.87 455.354 307.71V308.806C453.72 309.859 451.989 310.769 450.167 311.499C437.906 316.408 423.993 312.891 415.543 302.749C412.892 299.566 408.163 299.136 404.98 301.787C401.797 304.438 401.367 309.167 404.018 312.35C412.843 322.944 425.655 328.699 438.826 328.699C444.362 328.699 449.962 327.673 455.354 325.57V337.509C455.354 346.942 451.457 356.175 444.662 362.84C438.065 369.31 429.488 372.763 420.512 372.606C402.042 372.25 387.015 356.924 387.015 338.442V307.71ZM420.223 387.601C420.536 387.607 420.849 387.61 421.162 387.61C427.686 387.61 434.035 386.287 439.927 383.775V401.477L421.191 417.83L402.462 401.475V383.853C407.962 386.147 413.951 387.48 420.223 387.601V387.601ZM213.45 305.388V268.807C213.45 245.592 232.338 226.705 255.554 226.705C276.73 226.705 294.297 242.42 297.222 262.799C294.204 264.492 291.003 266.032 287.672 267.365C270.173 274.371 255.071 273.868 249.199 269.75C245.807 267.371 241.131 268.193 238.752 271.583C236.374 274.975 237.194 279.651 240.585 282.03C246.016 285.839 253.659 287.735 262.46 287.735C271.838 287.735 282.53 285.58 293.246 281.289C294.739 280.691 296.205 280.047 297.656 279.382V304.277C297.656 315.887 292.861 327.249 284.5 335.45C276.372 343.423 265.806 347.693 254.724 347.483C231.966 347.046 213.45 328.161 213.45 305.388V305.388ZM254.437 362.482C254.801 362.489 255.164 362.493 255.526 362.493C263.832 362.493 271.9 360.656 279.286 357.163V380.893C265.286 391.202 245.857 391.217 231.844 380.89V357.35C238.86 360.554 246.514 362.329 254.437 362.482V362.482ZM189.832 495.567C183.321 495.567 177.161 493.086 172.491 488.586C166.375 482.681 163.676 474.186 165.271 465.86L170.468 438.723C170.58 438.123 170.709 437.523 170.844 436.93C174.719 420.089 186.728 406.517 202.969 400.626L223.338 393.237C232.892 400.145 244.225 403.604 255.563 403.604C267.083 403.604 278.599 400.031 288.24 392.914L309.076 400.467C325.377 406.379 337.391 419.992 341.235 436.97C341.403 437.674 341.554 438.406 341.698 439.206L346.526 466.16C347.995 474.386 345.271 482.768 339.234 488.586C334.57 493.088 328.415 495.568 321.902 495.568H189.832V495.567ZM492.108 489.908C488.336 494.415 482.8 497 476.92 497H365.97C361.859 497 357.954 495.75 354.686 493.474C360.729 484.84 363.181 474.103 361.29 463.518L356.461 436.557C356.459 436.547 356.457 436.539 356.456 436.529C361.345 428.711 368.7 422.734 377.424 419.569L393.639 413.686L416.257 433.434C417.67 434.668 419.43 435.285 421.19 435.285C422.949 435.285 424.709 434.668 426.122 433.435L449.083 413.394L465.736 419.438C479.568 424.457 489.773 436.576 492.368 451.063L496.415 473.704C497.451 479.494 495.881 485.399 492.108 489.908V489.908Z" fill="white"/>
</svg>
