<svg width="126" height="125" viewBox="0 0 126 125" fill="none" xmlns="http://www.w3.org/2000/svg">
<path d="M124.25 114.036L119.857 110.936C119.042 110.361 117.721 110.361 116.907 110.936C116.092 111.511 116.092 112.443 116.907 113.018L121.3 116.117C121.64 116.357 121.827 116.676 121.827 117.015C121.827 117.354 121.64 117.672 121.3 117.912L115.951 121.686C115.25 122.18 114.109 122.181 113.408 121.686L94.1167 108.075L102.009 102.507L106.065 105.368C106.879 105.943 108.2 105.943 109.015 105.368C109.83 104.793 109.83 103.861 109.015 103.286L103.484 99.3842C102.67 98.8094 101.349 98.8096 100.534 99.3842L99.6195 100.029L93.8496 95.9585C98.8519 91.1377 101.81 85.1981 101.81 78.7791C101.81 62.7074 83.278 49.6323 60.4989 49.6323C37.7198 49.6323 19.1879 62.7074 19.1879 78.7791C19.1879 94.8509 37.7198 107.926 60.4989 107.926C69.59 107.926 78.0031 105.842 84.8332 102.317L90.6051 106.389L89.6907 107.035C88.8759 107.609 88.8759 108.541 89.6907 109.116L110.457 123.768C111.621 124.589 113.15 125 114.68 125C116.209 125 117.738 124.589 118.902 123.768L124.251 119.994C125.379 119.198 126 118.14 126 117.015C126 115.889 125.378 114.832 124.25 114.036ZM60.4987 104.982C40.0208 104.982 23.3606 93.2271 23.3606 78.7788C23.3606 64.3306 40.0208 52.5762 60.4987 52.5762C80.9765 52.5762 97.6368 64.3308 97.6368 78.779C97.6368 93.2272 80.9765 104.982 60.4987 104.982ZM88.0904 100.452C89.1822 99.7589 90.2216 99.0261 91.2039 98.2561L96.6681 102.111L93.5554 104.307L88.0904 100.452Z" fill="white"/>
<path d="M119.321 16.5797L118.983 16.579C115.451 16.579 112.587 19.3223 112.587 22.7065C112.587 26.0907 115.45 28.8339 118.982 28.8339L119.284 28.8346C119.29 28.8346 119.296 28.8346 119.303 28.8346C122.826 28.8346 125.688 26.1029 125.699 22.7249C125.709 19.3407 122.854 16.5895 119.321 16.5797Z" fill="white"/>
<path d="M113.059 19.5981C104.866 10.2669 93.2513 3.35826 80.3555 0.144056C78.0943 -0.419664 75.7374 0.721137 75.0905 2.69174C74.4437 4.66235 75.7527 6.71646 78.0138 7.28018C101.253 13.0721 117.483 31.8478 117.483 52.9378C117.483 65.8484 111.538 77.5696 101.91 86.1375C102.08 85.7371 102.177 85.3062 102.177 84.8542V76.8771C102.177 64.8672 92.0841 54.8772 78.9034 52.9994C81.2404 50.1849 82.623 46.7309 82.623 42.999V20.6985C82.623 18.6488 80.7166 16.9874 78.3647 16.9874H59.3332C50.5352 16.9874 43.3778 23.225 43.3778 30.8926V42.9994C43.3778 46.7313 44.7605 50.1849 47.0974 52.9998C33.9164 54.8772 23.8234 64.8672 23.8234 76.8775V84.8546C23.8234 85.3062 23.9205 85.7375 24.0904 86.1379C14.4633 77.5696 8.51741 65.8488 8.51741 52.9382C8.51741 32.0208 23.9009 13.7965 46.7964 7.59006C49.0418 6.98106 50.2963 4.90098 49.5979 2.9441C48.8991 0.987224 46.5128 -0.106815 44.267 0.502552C31.7089 3.90677 20.4342 10.8618 12.5185 20.0858C4.32897 29.6293 0 40.9894 0 52.9382C0 83.2128 28.2618 107.843 63 107.843C97.7382 107.843 126 83.2128 126 52.9382C126 40.7679 121.525 29.2393 113.059 19.5981ZM63.0004 52.678C56.877 52.678 51.894 48.3367 51.894 42.9994V40.3712H69.4943C71.1167 40.3712 72.6701 40.1118 74.106 39.6405V42.999C74.1064 48.336 69.1238 52.678 63.0004 52.678ZM69.763 60.1006L63 65.9946L56.237 60.1006H69.763ZM51.8935 30.893C51.894 27.3184 55.2308 24.4104 59.3323 24.4104H74.1056V28.9301C74.1056 31.1464 72.0369 32.9493 69.4939 32.9493H51.8935V30.893ZM32.3387 76.8775H32.3395C32.3395 69.5577 37.7484 63.3215 45.2647 61.0358L59.9885 73.8678C60.8202 74.5922 61.9099 74.9548 62.9996 74.9548C64.0893 74.9548 65.1794 74.5922 66.0106 73.8678L80.7345 61.0358C88.2503 63.3215 93.6596 69.5577 93.6596 76.8775V81.1431H32.3387V76.8775ZM63 100.42C49.1197 100.42 36.4377 95.8707 26.8072 88.3961C27.2096 88.5059 27.6375 88.5653 28.0812 88.5653H97.9188C98.3625 88.5653 98.7904 88.5059 99.1928 88.3961C89.5623 95.871 76.8803 100.42 63 100.42Z" fill="white"/>
</svg>
